<svg width="1024" height="1024" viewBox="0 0 1024 1024" fill="none" xmlns="http://www.w3.org/2000/svg">
<g clip-path="url(#clip0_0_520)">
<rect width="1024" height="1024" rx="64" fill="#F18D8D"/>
<rect width="1024" height="1024" fill="#FBF6ED"/>
<path d="M884 215.283V491.55H587.189C577.733 457.466 547.058 434.094 512 434.094C466.23 434.094 434.094 470.302 434.094 512C434.094 546.098 456.005 577.451 491.55 587.189V884H214.454C173.316 884 140 850.313 140 808.819V532.45H188.691H237.382C249.165 532.45 258.806 523.914 258.806 512C258.806 500.086 249.165 491.55 237.382 491.55H188.691H140V215.283C140 173.687 173.215 140 214.454 140H491.55V188.691V237.382C491.55 249.399 500.014 258.806 512 258.806C523.884 258.806 532.45 249.399 532.45 237.382V188.691V140L809.575 140C850.611 140.103 884 173.687 884 215.283Z" fill="#7B1A1E"/>
<path d="M884 532.45V808.511C884 850.004 850.684 883.692 809.648 883.692H532.45V587.189C555.335 581.141 579.194 562.152 587.189 532.45H884Z" fill="#527BA1"/>
</g>
<defs>
<clipPath id="clip0_0_520">
<rect width="1024" height="1024" rx="64" fill="white"/>
</clipPath>
</defs>
</svg>
