<svg width="764" height="764" viewBox="0 0 764 764" fill="none" xmlns="http://www.w3.org/2000/svg">
<path d="M764 77.307V361H459.21C449.5 326 418 302 382 302C335 302 302 339.181 302 382C302 417.015 324.5 449.21 361 459.21V764H76.4551C34.2119 764 0 729.407 0 686.798V403H50H100C112.099 403 122 394.234 122 382C122 369.766 112.099 361 100 361H50H0V77.307C0 34.593 34.1076 0 76.4551 0H361V50V100C361 112.34 369.692 122 382 122C394.204 122 403 112.34 403 100V50V6.21831e-05L687.575 0C729.714 0.105467 764 34.593 764 77.307Z" fill="#7B1A1E"/>
<path d="M764 403V686.482C764 729.091 729.788 763.684 687.649 763.684H403V459.21C426.5 453 451 433.5 459.21 403H764Z" fill="#527BA1"/>
</svg>
