<svg fill="none" height="764" viewBox="0 0 764 764" width="764" xmlns="http://www.w3.org/2000/svg"><path d="m764 77.307v283.693h-304.79c-9.71-35-41.21-59-77.21-59-47 0-80 37.181-80 80 0 35.015 22.5 67.21 59 77.21v304.79h-284.5449c-42.2432 0-76.4551-34.593-76.4551-77.202v-283.798h50 50c12.099 0 22-8.766 22-21s-9.901-21-22-21h-50-50v-283.693c0-42.714 34.1076-77.307 76.4551-77.307h284.5449v50 50c0 12.34 8.692 22 21 22 12.204 0 21-9.66 21-22v-50-49.99993782l284.575-.00006218c42.139.105467 76.425 34.593 76.425 77.307z" fill="#7b1a1e"/><path d="m764 403v283.482c0 42.609-34.212 77.202-76.351 77.202h-284.649v-304.474c23.5-6.21 48-25.71 56.21-56.21z" fill="#527ba1"/></svg>